<mxfile host="app.diagrams.net" modified="2020-07-19T01:32:33.860Z" agent="5.0 (X11; Linux x86_64) AppleWebKit/537.36 (KHTML, like Gecko) Chrome/84.0.4147.89 Safari/537.36" etag="D1isgvOjQ6rTbV6h6IrZ" version="13.4.6" type="github">
  <diagram id="_W_KUSnJ2rrJXWupKE85" name="Page-1">
    <mxGraphModel dx="3731" dy="2209" grid="1" gridSize="10" guides="1" tooltips="1" connect="1" arrows="1" fold="1" page="1" pageScale="1" pageWidth="850" pageHeight="1100" math="0" shadow="0">
      <root>
        <mxCell id="0" />
        <mxCell id="1" parent="0" />
        <mxCell id="PoRF3vKPV346Hp4pbJ57-1" value="&lt;font style=&quot;font-size: 44px&quot;&gt;HELP&lt;/font&gt;" style="rounded=0;whiteSpace=wrap;html=1;" vertex="1" parent="1">
          <mxGeometry x="-910" y="-1020" width="740" height="910" as="geometry" />
        </mxCell>
      </root>
    </mxGraphModel>
  </diagram>
</mxfile>
